<?xml version="1.0" encoding="utf-8"?>
<!-- Generator: Adobe Illustrator 21.0.0, SVG Export Plug-In . SVG Version: 6.00 Build 0)  -->
<svg version="1.1" id="Layer_1" xmlns="http://www.w3.org/2000/svg" xmlns:xlink="http://www.w3.org/1999/xlink" x="0px" y="0px"
	 viewBox="0 0 10 10" style="enable-background:new 0 0 10 10;" xml:space="preserve">
<style type="text/css">
	.st0{fill:url(#path1948_1_);}
	.st1{fill:url(#path1950_1_);}
</style>
<title>api-python</title>
<linearGradient id="path1948_1_" gradientUnits="userSpaceOnUse" x1="758.2516" y1="-404.0293" x2="767.9515" y2="-412.3748" gradientTransform="matrix(0.5625 0 0 -0.568 -426.7356 -229.1926)">
	<stop  offset="0" style="stop-color:#5A9FD4"/>
	<stop  offset="1" style="stop-color:#306998"/>
</linearGradient>
<path id="path1948" class="st0" d="M4.9,0C4.5,0,4.1,0,3.8,0.1c-1,0.2-1.2,0.6-1.2,1.2v0.9H5v0.3H2.6H1.7C1,2.5,0.4,3,0.2,3.8
	C0,4.7,0,5.2,0.2,6.2c0.2,0.7,0.6,1.2,1.3,1.2h0.8V6.3c0-0.8,0.7-1.5,1.5-1.5h2.4c0.7,0,1.2-0.5,1.2-1.2V1.3c0-0.6-0.5-1.1-1.2-1.2
	C5.8,0,5.3,0,4.9,0z M3.7,0.7c0.2,0,0.4,0.2,0.4,0.5c0,0.3-0.2,0.5-0.4,0.5c-0.2,0-0.4-0.2-0.4-0.5C3.2,0.9,3.4,0.7,3.7,0.7z"/>
<linearGradient id="path1950_1_" gradientUnits="userSpaceOnUse" x1="771.7015" y1="-417.4258" x2="768.2377" y2="-412.5251" gradientTransform="matrix(0.5625 0 0 -0.568 -426.7356 -229.1926)">
	<stop  offset="0" style="stop-color:#FFD43B"/>
	<stop  offset="1" style="stop-color:#FFE873"/>
</linearGradient>
<path id="path1950" class="st1" d="M7.7,2.5v1.1c0,0.8-0.7,1.5-1.5,1.5H3.8c-0.7,0-1.2,0.6-1.2,1.2v2.3c0,0.6,0.6,1,1.2,1.2
	c0.8,0.2,1.5,0.3,2.4,0c0.6-0.2,1.2-0.5,1.2-1.2V7.7H5V7.4h2.4h1.2c0.7,0,1-0.5,1.2-1.2c0.2-0.7,0.2-1.5,0-2.4
	C9.6,3.1,9.3,2.5,8.6,2.5H7.7z M6.3,8.3c0.2,0,0.4,0.2,0.4,0.5c0,0.3-0.2,0.5-0.4,0.5C6.1,9.2,5.9,9,5.9,8.8
	C5.9,8.5,6.1,8.3,6.3,8.3z"/>
</svg>
