<?xml version="1.0" encoding="iso-8859-1"?>
<!-- Generator: Adobe Illustrator 19.0.0, SVG Export Plug-In . SVG Version: 6.00 Build 0)  -->
<svg version="1.1" id="Layer_1" xmlns="http://www.w3.org/2000/svg" xmlns:xlink="http://www.w3.org/1999/xlink" x="0px" y="0px"
	 viewBox="0 0 512 512" style="enable-background:new 0 0 512 512;" xml:space="preserve">
<g>
	<g>
		<path fill="#868585" d="M450.548,200.362h-52.497H84.443c-8.594,0-15.562,6.967-15.562,15.562v87.866c0,39.427,15.515,75.298,40.759,101.83
			H57.506c-0.052-0.001-0.103,0-0.155,0H15.562C6.968,405.619,0,412.586,0,421.18c0,8.594,6.968,15.562,15.562,15.562h32.384
			l12.273,23.131c15.534,29.274,45.77,47.459,78.91,47.459h210.842c33.14,0,63.377-18.185,78.91-47.46l12.273-23.13h32.384
			c8.594,0,15.562-6.968,15.562-15.562c0-8.594-6.968-15.562-15.562-15.562H372.853c19.548-20.545,33.262-46.688,38.455-75.748
			h39.239c33.885,0,61.452-27.567,61.452-61.451v-6.606C512,227.929,484.432,200.362,450.548,200.362z M405.922,436.742
			l-4.533,8.541c-10.121,19.076-29.825,30.925-51.418,30.925H139.129c-21.593,0-41.297-11.85-51.418-30.924l-4.533-8.542H405.922z
			 M382.489,303.789c0,43.679-24.123,81.823-59.74,101.83H159.745c-35.619-20.007-59.74-58.151-59.74-101.83v-72.304h158.527v30.512
			l-26.816,20.112c-3.918,2.939-6.225,7.551-6.225,12.449v66.999c0,8.594,6.967,15.562,15.562,15.562h66.081
			c8.594,0,15.562-6.968,15.562-15.562v-66.999c0-4.899-2.306-9.51-6.225-12.449l-26.816-20.112v-30.512h92.834V303.789z
			 M274.094,289.231l17.479,13.109v43.657h-34.958V302.34L274.094,289.231z M480.877,268.419c0,16.723-13.605,30.328-30.329,30.328
			h-36.935v-67.263h36.935c16.724,0,30.329,13.605,30.329,30.328V268.419z"/>
	</g>
</g>
<g>
	<g>
		<path fill="#868585" d="M202.915,127.426c-3.263-11.091-0.988-20.052,7.157-28.198c31.02-31.019,14.435-71.432,1.331-88.466
			c-5.24-6.811-15.036-8.119-21.848-2.879c-6.812,5.241-8.111,14.979-2.872,21.792c0.06,0.079,5.976,8.021,8.671,18.385
			c3.081,11.841,0.764,21.108-7.291,29.163c-16.123,16.124-21.452,37.073-15.007,58.987c4.475,15.215,13.089,25.837,14.057,26.997
			c3.078,3.694,7.504,5.599,11.963,5.599c3.513,0,7.045-1.183,9.954-3.607c6.602-5.503,7.495-15.315,1.992-21.917
			C210.971,143.217,205.581,136.485,202.915,127.426z"/>
	</g>
</g>
<g>
	<g>
		<path fill="#868585" d="M293.877,127.426c-3.263-11.091-0.988-20.052,7.157-28.198c31.02-31.019,14.435-71.432,1.331-88.466
			c-5.24-6.811-15.035-8.119-21.848-2.879c-6.812,5.241-8.111,14.979-2.872,21.792c0.06,0.079,5.976,8.021,8.671,18.385
			c3.081,11.841,0.764,21.108-7.291,29.163c-16.122,16.124-21.452,37.073-15.007,58.987c4.475,15.215,13.089,25.837,14.057,26.997
			c3.078,3.694,7.504,5.599,11.963,5.599c3.513,0,7.045-1.183,9.954-3.607c6.602-5.503,7.495-15.315,1.992-21.917
			C301.932,143.217,296.542,136.485,293.877,127.426z"/>
	</g>
</g>
<g>
</g>
<g>
</g>
<g>
</g>
<g>
</g>
<g>
</g>
<g>
</g>
<g>
</g>
<g>
</g>
<g>
</g>
<g>
</g>
<g>
</g>
<g>
</g>
<g>
</g>
<g>
</g>
<g>
</g>
</svg>
