<?xml version="1.0" standalone="no"?>
<!DOCTYPE svg PUBLIC "-//W3C//DTD SVG 20010904//EN"
 "http://www.w3.org/TR/2001/REC-SVG-20010904/DTD/svg10.dtd">
<svg version="1.0" xmlns="http://www.w3.org/2000/svg"
 width="153.000000pt" height="168.000000pt" viewBox="0 0 153.000000 168.000000"
 preserveAspectRatio="xMidYMid meet">
<metadata>
Created by potrace 1.14, written by Peter Selinger 2001-2017
</metadata>
<g transform="translate(0.000000,168.000000) scale(0.100000,-0.100000)"
fill="#ffde6d" stroke="none">
<path d="M1110 1655 c0 -23 46 -65 70 -65 12 0 33 -6 48 -14 15 -8 44 -17 64
-21 32 -6 39 -13 62 -65 50 -110 29 -227 -56 -312 -74 -74 -207 -119 -216 -73
-6 27 -22 36 -54 29 -14 -3 -29 0 -33 5 -3 6 -26 11 -51 11 -30 0 -46 5 -50
15 -4 8 -17 15 -30 15 -12 0 -27 8 -33 18 -9 16 -11 16 -24 -2 -14 -18 -15
-19 -45 0 -31 18 -32 18 -55 -4 -18 -17 -31 -21 -54 -16 -25 5 -34 1 -52 -22
-20 -25 -22 -26 -34 -10 -12 17 -15 16 -52 -5 -22 -13 -45 -30 -51 -38 -16
-20 -82 -17 -136 7 -54 24 -132 93 -156 136 -22 43 -21 150 2 198 18 38 21 40
167 107 31 14 52 33 67 60 12 21 22 41 22 45 0 13 -25 5 -46 -15 -15 -14 -43
-23 -86 -29 -78 -9 -145 -29 -159 -47 -6 -7 -17 -13 -25 -13 -17 0 -71 -78
-89 -131 -8 -22 -16 -77 -17 -122 -2 -70 2 -90 25 -140 31 -68 116 -155 195
-199 28 -17 52 -34 52 -39 0 -5 -17 -9 -37 -9 -21 0 -54 -8 -73 -18 -32 -16
-35 -20 -31 -57 2 -22 9 -52 17 -67 15 -29 64 -68 86 -68 8 0 35 -13 61 -30
26 -16 53 -30 59 -30 7 0 9 -14 5 -39 -7 -52 14 -146 30 -130 20 20 33 1 17
-29 -12 -22 -12 -29 0 -37 23 -17 49 -79 48 -112 -1 -27 2 -33 18 -33 15 0 20
-7 20 -29 0 -23 5 -30 22 -33 16 -2 24 -12 29 -36 9 -47 54 -109 91 -128 49
-26 162 -30 233 -9 68 19 119 66 130 117 4 18 22 52 41 74 40 50 64 113 64
172 0 28 7 53 21 71 22 30 36 79 46 166 6 58 33 86 101 107 23 7 42 16 42 19
0 4 10 20 23 36 44 55 31 124 -27 143 -20 6 -36 15 -36 18 1 4 27 27 59 52 70
54 84 73 146 202 35 72 37 82 33 150 -4 82 -29 142 -86 209 -45 53 -74 66
-168 78 -43 6 -95 15 -114 21 -43 12 -40 13 -40 -5z"/>
</g>
</svg>
